#!OML:ASF F:\VICON\USERDATA\INSTALL\rory3\rory3.ASF
:FULLY-SPECIFIED
:DEGREES
18
root 0.8532004851664948 17.721810865597064 -15.393888733391885 0.611318228364004 -7.219714559831139 -8.965483115561316
lfemur -25.773688404318193 -5.691877569559535 -7.0847585760828675
ltibia 12.62381090014101
lfoot -6.5069391282491615 13.109880263319392
ltoes -0.4674924894354069
rfemur 11.39938423115451 8.370175921248752 35.48568539493013
rtibia 23.550307546584044
rfoot -17.98828973631688 -5.057512393035441
rtoes -6.620394103688266
lowerback 8.691004974505265 2.9330266160645384 9.205021839660079
upperback -0.2961010962253717 4.95995518709312 2.346412991735665
thorax -4.627068063893846 2.2524457284336696 -3.28537289908305
lowerneck -16.812697477122132 -2.8426115795334472 -1.2787701966704126
upperneck 21.771091012831672 -3.6821302757348358 0.25725346030489626
head 9.702821477831352 -1.7836801369709954 -0.18316457836539876
lclavicle -1.9532406450981726e-15 9.067692723530627e-16
lhumerus -38.738586601774266 6.998757908063223 81.50190918757808
lradius 21.815007350813346
lwrist 2.181877858017033
lhand -26.959001191496252 19.654510470509692
lfingers 7.12502
lthumb -0.3804511870336866 49.633910361194204
rclavicle -1.9532406450981726e-15 9.067692723530627e-16
rhumerus -21.923517371658598 -8.06256624847206 -82.9950867742963
rradius 29.725085257422307
rwrist 1.1132423606602018
rhand -18.355892863989816 25.061889215076977
rfingers 7.12502
rthumb 7.926847146354429 -4.769470633268893
19
root 0.9375104558386229 17.81860543891849 -14.527988626046733 0.022008355980806193 -7.234754475630092 -7.496886901058314
lfemur -24.746089215547553 -3.719455198102091 -10.409513341748289
ltibia 15.30130877322166
lfoot 0.23016680166390024 5.892660333826589
ltoes -1.7083827079959812
rfemur 12.90218248024053 7.801058223463533 33.32958872192012
rtibia 26.202905809557773
rfoot -14.400793910306879 -2.7755366056489796
rtoes -10.656977594749232
lowerback 8.540246829799294 2.9138266461730233 7.867065018579174
upperback -0.20208062618759076 4.766206011775012 2.1079354099527277
thorax -4.547449877913833 2.193726203212331 -2.7670449077108734
lowerneck -16.94959562521856 -2.854351169485531 -1.4385578136960187
upperneck 22.05608757555889 -3.6150117123089087 0.09139804424957265
head 9.828907520120653 -1.7837401337014243 -0.21042469538089728
lclavicle -1.953240668309855e-15 9.067691698370575e-16
lhumerus -39.17258531741338 8.868084440712636 80.74981353868068
lradius 20.294110380804455
lwrist 1.1092113876138066
lhand -27.20779988398527 18.486013423628464
lfingers 7.12502
lthumb -0.6207718830625032 48.46481334551369
rclavicle -1.953240668309855e-15 9.067691698370575e-16
rhumerus -22.88961476027386 -9.356964423858006 -82.56978811802216
rradius 29.250086659379477
rwrist 1.5441812160578747
rhand -19.79068056811943 23.016497396537524
rfingers 7.12502
rthumb 6.541909541516062 -6.862472288995693
20
root 0.9908761948404838 17.91849983086025 -13.649488055302706 -1.0373296405705286 -5.646659136068106 -4.494634179781096
lfemur -22.27719022537538 -3.7424851139631716 -14.944307183298314
ltibia 16.290208691643464
lfoot 3.032019168241658 0.12930670301911695
ltoes -3.0354206907448145
rfemur 11.89078400925824 6.226153805524597 29.764293886773675
rtibia 32.99190207763438
rfoot -7.956000361774434 -1.7821085846743205
rtoes -9.703399654319972
lowerback 8.386508755661877 2.632318416270415 4.8094418349672425
upperback -0.310184706090004 4.050038748753855 1.3735428286903804
thorax -4.7938942592088205 1.8981187320546602 -1.7586790126801324
lowerneck -16.252005056453207 -3.0290950393980447 -1.45551756289873
upperneck 22.235285481081835 -3.8949857156685948 0.19302229797895087
head 9.766519466495149 -1.905843339760116 -0.19979702781138578
lclavicle -1.953240616762468e-15 9.06769238669254e-16
lhumerus -39.31988574158561 10.017582226890731 79.69281944954392
lradius 18.12041514564464
lwrist -0.6389308688476385
lhand -27.03950076852578 18.00751482884036
lfingers 7.12502
lthumb -0.45825576913038296 47.98681473835517
rclavicle -1.953240616762468e-15 9.06769238669254e-16
rhumerus -24.53371021897866 -12.342309478015604 -81.76359100815813
rradius 27.669691443260916
rwrist 2.5871189760503137
rhand -20.067978094997287 22.673998759517747
rfingers 7.12502
rthumb 6.274181882942772 -7.21312090728632
21
root 1.033734687146038 17.992851090535915 -12.140947669289845 -1.73738740093262 -6.147605665421523 -2.8676049263282497
lfemur -20.399674010905755 -3.386436917404076 -17.121033449031337
ltibia 22.809676839344498
lfoot -1.3550118229659907 -2.3287472026777625
ltoes -1.4411508354922709
rfemur 8.67031586902461 4.46467920989556 27.645949094271575
rtibia 40.295630982937084
rfoot 0.7512923589385014 0.707582695666555
rtoes -3.763941021200535
lowerback 8.440706919614904 2.5417872399330728 4.388783267724253
upperback -0.07914662660974692 3.918065656960418 1.0163331019883532
thorax -4.741533874600184 1.8749767893070854 -1.6255037105240606
lowerneck -16.323276669792484 -3.0447373409688767 -1.450041598176432
upperneck 21.938756761035734 -3.891153966733953 0.34282443801046064
head 9.720352047642777 -1.9145852726222459 -0.12398938339503987
lclavicle -1.957517728969685e-15 8.915288424100225e-16
lhumerus -39.35361052916898 9.106545494887975 80.06859307128651
lradius 17.203376501766805
lwrist -1.1980153721916942
lhand -26.57516204938371 21.563815877023153
lfingers 7.12502
lthumb -0.13923163503249297 51.007512688318414
rclavicle -1.9512172938028877e-15 9.086453289850898e-16
rhumerus -26.078216510958676 -14.66388416497897 -81.31116161293666
rradius 26.84450007502668
rwrist 3.448123819777045
rhand -18.08901089803465 22.68597953677331
rfingers 7.12502
rthumb 8.274265306826567 -7.1150681167408445
22
root 1.0550476456867819 18.03241172977624 -10.87970937718264 -2.3088575797235813 -7.308153342085449 -1.3723455674767022
lfemur -17.50354414596073 -3.1518436150361135 -19.694158495597744
ltibia 25.155978998748775
lfoot -1.4358250150531582 -0.0932690568725395
ltoes -3.077774757546475
rfemur 3.5703750590731786 4.077118719626634 25.220765032286508
rtibia 49.2612023632413
rfoot 9.479749163715102 -0.05049281685436302
rtoes 7.999011941730778
lowerback 8.894752240890488 2.5884922725258708 3.090734760074053
upperback 0.05317808865543722 3.6672784560840177 0.6659331061073911
thorax -4.866120688575781 1.809571308040373 -1.3759821262141152
lowerneck -16.21787454702626 -3.0397332112002275 -1.3909479080278937
upperneck 21.80801716540557 -3.8739218531881683 0.41104235501993985
head 9.744944876940966 -1.9279276145753415 -0.12457673304026587
lclavicle -1.957548717338345e-15 8.915327331278128e-16
lhumerus -38.916010847237935 6.952959630537398 81.17057592101976
lradius 16.804277108925515
lwrist 0.08976561880731371
lhand -26.752648717194685 21.66993044722271
lfingers 7.12502
lthumb -0.21452484697291196 51.38250965676232
rclavicle -1.9512124379042675e-15 9.086502861908808e-16
rhumerus -26.932174886299965 -15.846604139249838 -81.07012766587509
rradius 25.79422778992623
rwrist 4.328309704455043
rhand -17.363057285589697 22.511823918255676
rfingers 7.12502
rthumb 8.806145991494262 -7.233927250226236
23
root 1.0581287676131297 18.045363416010737 -10.222398792980249 -2.8314812107922234 -7.948038593645611 -0.14347100493828502
lfemur -14.294373148587606 -3.0090064312726277 -22.070695381020283
ltibia 26.37087929450452
lfoot -4.413388320506398 0.24485134609013515
ltoes -5.716752462204006
rfemur -2.2233088414510718 3.2489836992963474 22.418061677539725
rtibia 58.830637087082394
rfoot 10.806051077597292 -5.826304336202186
rtoes 11.81797390546196
lowerback 9.34835108712271 2.5202560769429785 1.6837481833136738
upperback 0.2333358621393886 3.444998974725826 0.24854583119012963
thorax -4.899792745889743 1.7176090710578324 -0.9468822634560389
lowerneck -16.08306603821923 -3.0058954792527652 -1.3752173519781592
upperneck 21.92859172062352 -3.919947000847092 0.4708415907978172
head 9.714491557780539 -1.9087279971588906 -0.14374056818854078
lclavicle -1.957592325183083e-15 8.915210988741442e-16
lhumerus -37.660131466753924 5.421077329227672 81.85087367310568
lradius 16.836959008616027
lwrist 1.9608545725839188
lhand -26.649699822139453 22.442955736054106
lfingers 7.12502
lthumb -0.11450742182271112 52.23108503023709
rclavicle -1.95123947872551e-15 9.086257973810699e-16
rhumerus -27.52814794752025 -17.419043075974646 -80.7528382929021
rradius 24.674979718171635
rwrist 5.764322694501853
rhand -17.007031235409325 22.430398873929864
rfingers 7.12502
rthumb 9.103182738187428 -6.888153030221687
